<?xml version="1.0" standalone="no"?><!DOCTYPE svg PUBLIC "-//W3C//DTD SVG 1.1//EN" "http://www.w3.org/Graphics/SVG/1.1/DTD/svg11.dtd"><svg t="1666446815898" class="icon" viewBox="0 0 1024 1024" version="1.1" xmlns="http://www.w3.org/2000/svg" p-id="957" xmlns:xlink="http://www.w3.org/1999/xlink" width="200" height="200"><path d="M864 480c-17.6 0-32 14.4-32 32v288c0 17.6-14.4 32-32 32H224c-17.6 0-32-14.4-32-32V224c0-17.6 14.4-32 32-32h294.08c17.6 0 32-14.4 32-32s-14.4-32-32-32H224C171.2 128 128 171.2 128 224v576c0 52.8 43.2 96 96 96h576c52.8 0 96-43.2 96-96v-288c0-17.6-14.4-32-32-32z" p-id="958"></path><path d="M918.72 105.28a31.872 31.872 0 0 0-45.12 0l-544 544a31.872 31.872 0 0 0 0 45.12c6.08 6.4 14.08 9.6 22.4 9.6s16.32-3.2 22.72-9.28l544-544c12.48-12.48 12.48-32.96 0-45.44z" p-id="959"></path></svg>