<svg t="1667053991228" class="icon" viewBox="0 0 1024 1024" version="1.1" xmlns="http://www.w3.org/2000/svg" p-id="2245" width="15" height="15"><path d="M912 240a16 16 0 0 1 16 16v64a16 16 0 0 1-16 16h-79.36v544a64 64 0 0 1-60.8 63.936l-3.2 0.064h-512a64 64 0 0 1-63.936-60.8v-3.2l-0.064-544H112A16 16 0 0 1 96 320V256a16 16 0 0 1 16-16h800z m-175.36 96h-448v512h448v-512z m-176.64 128V704h-96V464h96z m112-384a16 16 0 0 1 16 16v64a16 16 0 0 1-16 16h-320a16 16 0 0 1-16-16v-64a16 16 0 0 1 16-16h320z" p-id="2246" fill="#ffffff"></path></svg>